<?xml version="1.0" encoding="UTF-8" standalone="no"?>
<svg
   xmlns:dc="http://purl.org/dc/elements/1.1/"
   xmlns:cc="http://creativecommons.org/ns#"
   xmlns:rdf="http://www.w3.org/1999/02/22-rdf-syntax-ns#"
   xmlns:svg="http://www.w3.org/2000/svg"
   xmlns="http://www.w3.org/2000/svg"
   xmlns:sodipodi="http://sodipodi.sourceforge.net/DTD/sodipodi-0.dtd"
   xmlns:inkscape="http://www.inkscape.org/namespaces/inkscape"
   height="48"
   viewBox="0 0 72 48"
   width="72"
   fill="#000000"
   version="1.1"
   id="svg16"
   sodipodi:docname="left_side_better_72px.svg"
   inkscape:version="1.0.2 (e86c870879, 2021-01-15, custom)">
  <metadata
     id="metadata22">
    <rdf:RDF>
      <cc:Work
         rdf:about="">
        <dc:format>image/svg+xml</dc:format>
        <dc:type
           rdf:resource="http://purl.org/dc/dcmitype/StillImage" />
        <dc:title />
      </cc:Work>
    </rdf:RDF>
  </metadata>
  <defs
     id="defs20" />
  <sodipodi:namedview
     pagecolor="#ffffff"
     bordercolor="#666666"
     borderopacity="1"
     objecttolerance="10"
     gridtolerance="10"
     guidetolerance="10"
     inkscape:pageopacity="0"
     inkscape:pageshadow="2"
     inkscape:window-width="1846"
     inkscape:window-height="1057"
     id="namedview18"
     showgrid="false"
     showguides="true"
     inkscape:guide-bbox="true"
     inkscape:zoom="5.6568543"
     inkscape:cx="35.549938"
     inkscape:cy="0.54311099"
     inkscape:window-x="1986"
     inkscape:window-y="-8"
     inkscape:window-maximized="1"
     inkscape:current-layer="svg16"
     inkscape:document-rotation="0">
    <sodipodi:guide
       position="1.0106065,11.98713"
       orientation="0,-1"
       id="guide856" />
  </sodipodi:namedview>
  <g
     id="g844"
     transform="matrix(1.0005811,0,0,1.0005811,2.9861763,2.9972046e-7)">
    <circle
       cx="-36.754986"
       cy="18.988966"
       r="2.9982576"
       id="circle6"
       transform="scale(-1,1)"
       style="stroke-width:1.99884" />
    <circle
       cx="-50.746857"
       cy="18.988966"
       r="2.9982576"
       id="circle8"
       transform="scale(-1,1)"
       style="stroke-width:1.99884" />
    <circle
       cx="-36.754986"
       cy="18.988966"
       r="2.9982576"
       id="circle10"
       transform="scale(-1,1)"
       style="stroke-width:1.99884" />
    <circle
       cx="-50.746857"
       cy="18.988966"
       r="2.9982576"
       id="circle12"
       transform="scale(-1,1)"
       style="stroke-width:1.99884" />
    <path
       d="m 43.770906,3.9976768 c 11.033588,0 19.968395,8.9547962 19.968395,19.9883842 0,11.033588 -8.934807,19.988385 -19.968395,19.988385 -11.053577,0 -20.008374,-8.954797 -20.008374,-19.988385 0,-11.033588 8.954797,-19.9883842 20.008374,-19.9883842 z m -0.01999,35.9790912 c 8.834866,0 15.990707,-7.155841 15.990707,-15.990707 0,-8.834865 -7.155841,-15.9907072 -15.990707,-15.9907072 -8.834866,0 -15.990707,7.1558422 -15.990707,15.9907072 0,8.834866 7.155841,15.990707 15.990707,15.990707 z m 0,-4.997095 c -4.657294,0 -8.634982,-2.898316 -10.234052,-6.995935 h 3.33806 c 1.379198,2.378618 3.937711,3.997677 6.895992,3.997677 2.95828,0 5.496806,-1.619059 6.895993,-3.997677 h 3.33806 c -1.599071,4.097619 -5.57676,6.995935 -10.234053,6.995935 z"
       id="path14"
       style="stroke-width:1.99884" />
    <path
       d="M 12.244192,34.005978 2.25,24.011786 12.244192,14.017594 Z"
       id="path2-9"
       style="stroke-width:1.99884" />
  </g>
</svg>
