<?xml version="1.0" encoding="UTF-8" standalone="no"?>
<svg
   xmlns:dc="http://purl.org/dc/elements/1.1/"
   xmlns:cc="http://creativecommons.org/ns#"
   xmlns:rdf="http://www.w3.org/1999/02/22-rdf-syntax-ns#"
   xmlns:svg="http://www.w3.org/2000/svg"
   xmlns="http://www.w3.org/2000/svg"
   xmlns:sodipodi="http://sodipodi.sourceforge.net/DTD/sodipodi-0.dtd"
   xmlns:inkscape="http://www.inkscape.org/namespaces/inkscape"
   height="48"
   viewBox="0 0 72 48"
   width="72"
   fill="#000000"
   version="1.1"
   id="svg16"
   sodipodi:docname="left_side_better_dark_72px.svg"
   inkscape:version="1.0.2 (e86c870879, 2021-01-15, custom)">
  <metadata
     id="metadata22">
    <rdf:RDF>
      <cc:Work
         rdf:about="">
        <dc:format>image/svg+xml</dc:format>
        <dc:type
           rdf:resource="http://purl.org/dc/dcmitype/StillImage" />
        <dc:title />
      </cc:Work>
    </rdf:RDF>
  </metadata>
  <defs
     id="defs20" />
  <sodipodi:namedview
     pagecolor="#ffffff"
     bordercolor="#666666"
     borderopacity="1"
     objecttolerance="10"
     gridtolerance="10"
     guidetolerance="10"
     inkscape:pageopacity="0"
     inkscape:pageshadow="2"
     inkscape:window-width="1846"
     inkscape:window-height="1057"
     id="namedview18"
     showgrid="false"
     showguides="true"
     inkscape:guide-bbox="true"
     inkscape:zoom="16"
     inkscape:cx="35.107257"
     inkscape:cy="24.300616"
     inkscape:window-x="1986"
     inkscape:window-y="-8"
     inkscape:window-maximized="1"
     inkscape:current-layer="svg16"
     inkscape:document-rotation="0"
     inkscape:pagecheckerboard="true">
    <sodipodi:guide
       position="1.0106065,11.98713"
       orientation="0,-1"
       id="guide856" />
  </sodipodi:namedview>
  <g
     id="g842"
     transform="matrix(0.90909091,0,0,0.90909091,3.4193009,2.1818182)">
    <circle
       cx="-39.977539"
       cy="18.5"
       r="3.3000002"
       id="circle6"
       transform="scale(-1,1)"
       style="stroke-width:2.2" />
    <circle
       cx="-55.377544"
       cy="18.5"
       r="3.3000002"
       id="circle8"
       transform="scale(-1,1)"
       style="stroke-width:2.2" />
    <circle
       cx="-39.977539"
       cy="18.5"
       r="3.3000002"
       id="circle10"
       transform="scale(-1,1)"
       style="fill:#ffffff;fill-opacity:1;stroke:none;stroke-width:2.2" />
    <circle
       cx="-55.377544"
       cy="18.5"
       r="3.3000002"
       id="circle12"
       transform="scale(-1,1)"
       style="fill:#ffffff;fill-opacity:1;stroke:none;stroke-width:2.2" />
    <path
       d="m 47.699538,2 c 12.144001,0 21.978,9.856 21.978,22.000001 0,12.144 -9.833999,21.999999 -21.978,21.999999 -12.166001,0 -22.022,-9.855999 -22.022,-21.999999 C 25.677538,11.856 35.533537,2 47.699538,2 Z m -0.02201,39.6 c 9.724001,0 17.600001,-7.876 17.600001,-17.599999 C 65.277529,14.276 57.401529,6.4 47.677528,6.4 c -9.723999,0 -17.6,7.876 -17.6,17.600001 0,9.723999 7.876001,17.599999 17.6,17.599999 z m 0,-5.5 c -5.125999,0 -9.504,-3.189999 -11.264,-7.7 h 3.674001 c 1.518,2.617999 4.334,4.4 7.589999,4.4 3.256001,0 6.050001,-1.782001 7.590001,-4.4 h 3.674 c -1.760001,4.510001 -6.138001,7.7 -11.264001,7.7 z"
       id="path14"
       style="fill:#ffffff;fill-opacity:1;stroke-width:2.2" />
    <path
       d="m 13,35.028314 -11,-11 11,-11 z"
       id="path2-9"
       style="fill:#ffffff;fill-opacity:1;stroke-width:2.2" />
  </g>
</svg>
